<svg xmlns="http://www.w3.org/2000/svg" width="100" height="100" viewBox="0 0 24 24">
  <path d="M12 9c3.133 0 4.806-2 6.362-3.906.62-.708-.196-1.545-.973-1.094-1.01.597-2.426 1.364-5.389 1.364-2.905 0-4.469-.713-5.421-1.29-.672-.402-1.481.367-.878 1.1 1.434 1.691 3.107 3.826 6.299 3.826zm-8 3.077v-1.077c2.324 0 2.95-1 8-1 5.052 0 5.678 1 8 1v1.077c-4.85 0-4.706-1-8-1-3.278 0-3.202 1-8 1zm17 2.21v.713c0 2.2-1.8 3-7 3-5.189 0-7-.8-7-3v-.713c5.226 1.459 8.705-.272 14 0zm-15-1.287c5.031-.017 8.034 1.89 15 .762v1.058c0 2.2-1.8 3-7 3-5.189 0-7-.8-7-3v-1.058c-2.334-.36-1.719-.94-1-1.762z"/>
</svg>
