<svg xmlns="http://www.w3.org/2000/svg" viewBox="0 0 64 64" width="200" height="200">
  <path d="M32 2c12 0 20 8 20 16 0 8-8 16-8 24s8 10 8 16-8 8-16 8-16-4-16-8 8-2 8-16-8-16-8-24 8-16 16-16z" fill="#d48a38"/>
  <path d="M32 4c11 0 18 6 18 14 0 8-6 14-6 22s6 6 6 14-6 6-14 6-14-2-14-6 6-2 6-14-6-14-6-22 6-14 14-14z" fill="#b96b2f"/>
  <circle cx="44" cy="34" r="4" fill="#8b4f26"/>
  <circle cx="38" cy="28" r="4" fill="#8b4f26"/>
  <circle cx="26" cy="28" r="4" fill="#8b4f26"/>
  <circle cx="20" cy="34" r="4" fill="#8b4f26"/>
</svg>
