<?xml version="1.0" encoding="utf-8"?>
<!-- Generator: Adobe Illustrator 26.0.3, SVG Export Plug-In . SVG Version: 6.00 Build 0)  -->
<svg version="1.0" id="Layer_1" xmlns="http://www.w3.org/2000/svg" xmlns:xlink="http://www.w3.org/1999/xlink" x="0px" y="0px"
	 viewBox="0 0 604.5 451.6" style="enable-background:new 0 0 604.5 451.6;" xml:space="preserve">
<style type="text/css">
	.st0{fill:#FFCB05;}
</style>
<path class="st0" d="M163.3,125.5h-55.9v205.2h28.7v-79.1h27.2c34.8,0.4,63.4-27.4,63.9-62.3s-27.4-63.4-62.3-63.9
	C164.4,125.5,163.8,125.5,163.3,125.5 M163.3,223h-27.2v-68.8h27.2c19,0.3,34.1,16,33.8,35C196.8,207.7,181.8,222.7,163.3,223"/>
<path class="st0" d="M461.4,330.7H497l-51.6-81.9c33.3-10.3,51.9-45.6,41.6-78.9c-8.2-26.4-32.6-44.5-60.3-44.5h-55.9v205.2h28.7
	v-79.1h11.9 M399.6,154.2h27.2c19-0.3,34.6,14.8,35,33.8c0.3,19-14.8,34.6-33.8,35c-0.4,0-0.8,0-1.2,0h-27.2V154.2z"/>
<polyline class="st0" points="324,119.3 290.6,245.1 257.2,119.3 220.3,93.6 290.6,358 361,93.6 "/>
</svg>
